<?xml version="1.0" encoding="UTF-8" standalone="no"?>
<svg
   viewBox="0 0 39.999748 53.333"
   version="1.1"
   id="svg4"
   width="39.999748"
   height="53.333"
   xmlns="http://www.w3.org/2000/svg"
   xmlns:svg="http://www.w3.org/2000/svg">
  <defs
     id="defs8" />
  <!--! Font Awesome Pro 6.4.2 by @fontawesome - https://fontawesome.com License - https://fontawesome.com/license (Commercial License) Copyright 2023 Fonticons, Inc. -->
  <g
     id="g241"
     style="image-rendering:auto"
     transform="scale(0.10416667)">
    <path
       d="M 153.6,29.9 169.59999,8.6 C 173.6,3.2 180,0 186.69994,0 c 11.70005,0 21.30005,9.6 21.30005,21.3 v 22.2 c 0,13.1 5.40002,25.7 14.90002,34.7 l 84.7,80.8 C 356.39999,205.6 384,270.2 384,337.7 384,434 305.99999,512 209.69995,512 H 192 C 86,512 0,426 0,320 v -3.8 C 0,267.4 19.399998,220.6 53.900005,186.1 l 3.499997,-3.5 C 61.599999,178.4 67.399998,176 73.399999,176 85.899997,176 96,186.1 96,198.6 V 288 c 0,35.3 28.7,64 63.99999,64 35.29996,0 64.00002,-28.7 64.00002,-64 v -3.9 c 0,-18 -7.20001,-35.3 -19.90003,-48 l -38.59996,-38.6 c -24,-24 -37.50001,-56.7 -37.50001,-90.7 0,-27.7 8.99998,-54.8 25.59999,-76.9 z"
       id="path2"
       style="fill:#808080;stroke-width:1" />
    <path
       style="fill:#808080;stroke-width:3.82117"
       d="M 181.88656,511.33886 C 133.89744,508.89256 89.357463,488.67416 55.23264,453.84576 30.625072,428.73086 14.28228,399.44461 5.8304908,365.31725 -1.008107,337.70376 -1.4223044,304.45244 4.7264997,276.68999 12.157133,243.13993 28.581899,212.76051 52.760106,187.84649 c 8.722279,-8.9877 12.971094,-11.30553 20.740029,-11.31412 9.713461,-0.0107 18.147984,6.24609 21.068162,15.62862 1.095496,3.51986 1.161495,6.49532 1.161495,52.35939 0,52.90962 0.116289,55.02823 3.545417,64.59422 3.572331,9.96549 8.020931,16.95047 15.543331,24.40531 12.65497,12.5415 27.32713,18.53005 45.35162,18.51058 24.90018,-0.0269 46.21583,-13.21461 57.38684,-35.50456 5.13417,-10.24419 6.96683,-19.86017 6.45759,-33.88005 -0.59267,-16.31382 -4.53569,-27.69108 -13.94368,-40.23333 -1.52877,-2.03812 -13.80679,-14.82268 -27.28463,-28.41014 -25.51756,-25.72499 -30.46789,-31.45701 -36.94953,-42.78352 -12.44394,-21.74532 -17.9604,-43.69359 -17.18834,-68.38656 0.72077,-23.053423 6.50104,-42.635506 18.4642,-62.550797 3.6338,-6.049501 22.58152,-31.5984348 25.40156,-34.2513897 1.07855,-1.014688 3.6703,-2.6607676 5.75921,-3.6579547 9.83716,-4.6957689 22.2724,-0.1912557 27.20583,9.8549064 l 1.72955,3.522 0.3857,17.60193 c 0.32884,15.003589 0.57326,18.298072 1.65514,22.317797 1.47296,5.472717 4.85599,12.524501 8.06563,16.81277 1.23518,1.650159 22.39531,22.242509 47.02251,45.760788 24.62728,23.51827 47.89744,46.01057 51.71156,49.98289 44.11064,45.94067 68.99468,110.23986 67.29903,173.89678 -0.36047,13.52839 -1.16172,20.7597 -3.52817,31.84176 -12.87881,60.30935 -56.968,109.47946 -115.48242,128.79057 -24.04077,7.93402 -47.43333,10.36956 -82.45118,8.58448 z"
       id="path252" />
    <path
       style="fill:#808080;stroke-width:0.675499"
       d="M 182.80584,214.72501 C 172.23535,204.14333 162.93264,194.7732 162.133,193.9025 c -11.99497,-13.06247 -20.83616,-27.73171 -26.74904,-44.3814 -1.4486,-4.0791 -3.63711,-11.52222 -3.4445,-11.71485 0.12953,-0.12947 0.25965,0.17815 0.54492,1.28822 4.01263,15.61278 12.53572,33.18076 21.55679,44.4327 5.168,6.44629 10.01035,11.58395 30.35973,32.21119 11.17393,11.32649 17.75502,18.09529 17.67298,18.17726 -0.0273,0.0268 -8.69752,-8.60893 -19.26804,-19.19061 z"
       id="path254" />
    <path
       style="fill:#808080;stroke-width:0.675499"
       d="m 224.036,281.74596 c 0,-1.38564 -0.45608,-6.27723 -0.82337,-8.83131 -1.57562,-10.95567 -5.56239,-20.40893 -12.5789,-29.82686 -2.18315,-2.93039 -9.31525,-10.38588 -29.55973,-30.90025 -20.74758,-21.02399 -26.30945,-27.1968 -31.38425,-34.83142 -5.61413,-8.44588 -11.08062,-19.62773 -14.54188,-29.74566 -0.99809,-2.91754 -2.8198,-9.1729 -2.82201,-9.68967 -4.7e-4,-0.10905 15.30556,-0.13558 76.17937,-0.13202 l 76.17989,0.004 4.31252,4.16416 c 26.35258,25.44553 28.60761,27.70647 35.04208,35.1315 4.84138,5.58666 10.30598,12.56899 14.34344,18.32693 l 0.94618,1.34955 v 42.62243 42.62243 H 281.68281 224.036 Z"
       id="path256" />
  </g>
</svg>
