<?xml version="1.0" encoding="UTF-8" standalone="no"?>
<svg
   viewBox="0 0 39.999748 53.333"
   version="1.1"
   id="svg4"
   sodipodi:docname="fire-flame-redsc.svg"
   width="39.999748"
   height="53.333"
   inkscape:version="1.2.1 (9c6d41e410, 2022-07-14)"
   xmlns:inkscape="http://www.inkscape.org/namespaces/inkscape"
   xmlns:sodipodi="http://sodipodi.sourceforge.net/DTD/sodipodi-0.dtd"
   xmlns="http://www.w3.org/2000/svg"
   xmlns:svg="http://www.w3.org/2000/svg">
  <sodipodi:namedview
     id="namedview319"
     pagecolor="#ffffff"
     bordercolor="#000000"
     borderopacity="0.25"
     inkscape:showpageshadow="2"
     inkscape:pageopacity="0.0"
     inkscape:pagecheckerboard="0"
     inkscape:deskcolor="#d1d1d1"
     showgrid="false"
     inkscape:zoom="1.6191406"
     inkscape:cx="192.0772"
     inkscape:cy="256.30881"
     inkscape:window-width="1920"
     inkscape:window-height="1009"
     inkscape:window-x="1912"
     inkscape:window-y="-8"
     inkscape:window-maximized="1"
     inkscape:current-layer="svg4" />
  <defs
     id="defs8" />
  <!--! Font Awesome Pro 6.4.2 by @fontawesome - https://fontawesome.com License - https://fontawesome.com/license (Commercial License) Copyright 2023 Fonticons, Inc. -->
  <path
     d="M 16,3.1145833 17.666667,0.89583333 C 18.083333,0.33333333 18.75,0 19.447917,0 c 1.21875,0 2.21875,1 2.21875,2.21875 v 2.3125 c 0,1.3645833 0.5625,2.6770833 1.552083,3.6145833 L 32.041667,16.5625 C 37.125,21.416667 40,28.145833 40,35.177083 c 0,10.03125 -8.125,18.15625 -18.15625,18.15625 H 20 c -11.0416667,0 -20,-8.958333 -20,-20 V 32.9375 C 0,27.854167 2.0208333,22.979167 5.6145833,19.385417 l 0.3645834,-0.364584 c 0.4375,-0.4375 1.0416666,-0.6875 1.6666666,-0.6875 C 8.9479167,18.333333 10,19.385417 10,20.6875 V 30 c 0,3.677083 2.989583,6.666667 6.666667,6.666667 3.677083,0 6.666666,-2.989584 6.666666,-6.666667 v -0.40625 c 0,-1.875 -0.75,-3.677083 -2.072916,-5 l -4.020834,-4.020833 c -2.5,-2.5 -3.90625,-5.90625 -3.90625,-9.447917 0,-2.8854167 0.9375,-5.7083333 2.666667,-8.0104167 z"
     id="path2"
     style="fill:#ff0000;stroke-width:0.104167" />
  <path
     style="fill:#ff0000;stroke-width:0.398044"
     d="M 18.946522,53.264465 C 13.94765,53.009642 9.3080692,50.903558 5.7533983,47.2756 3.1901119,44.659465 1.4877371,41.608814 0.60734282,38.05388 -0.10501116,35.177475 -0.14815669,31.713796 0.49234375,28.821874 1.2663684,25.327076 2.977281,22.162553 5.4958448,19.567343 c 0.9085692,-0.936219 1.3511568,-1.17766 2.1604196,-1.178554 1.0118183,-0.0011 1.8904145,0.650634 2.1945991,1.627981 0.1141147,0.366652 0.1209901,0.676596 0.1209901,5.454103 0,5.511419 0.012113,5.732107 0.3693144,6.728565 0.372118,1.038071 0.835514,1.765673 1.61909,2.542219 1.318233,1.306407 2.846584,1.930214 4.724131,1.928186 2.593777,-0.0028 4.814155,-1.376522 5.977802,-3.698392 0.534798,-1.067103 0.725715,-2.068768 0.672662,-3.529172 -0.06173,-1.699356 -0.472466,-2.884487 -1.452464,-4.190972 -0.15925,-0.212304 -1.438223,-1.544029 -2.842162,-2.959389 -2.658063,-2.679687 -3.173728,-3.276772 -3.848902,-4.456617 -1.296237,-2.265137 -1.870873,-4.551416 -1.790449,-7.1236 0.07508,-2.4013982 0.677203,-4.4411985 1.923345,-6.515708 0.37853,-0.6301563 2.352249,-3.2915036 2.646006,-3.56785307 0.112354,-0.10569667 0.38232,-0.27716329 0.599923,-0.38103695 1.024698,-0.48914259 2.320039,-0.0199225 2.833928,1.02655272 l 0.180161,0.366875 0.04019,1.8335344 c 0.03425,1.5628739 0.0597,1.9060492 0.172406,2.3247705 0.153441,0.5700747 0.505837,1.3046355 0.840177,1.7513302 0.128657,0.1718916 2.332836,2.3169281 4.898176,4.7667492 2.56534,2.449819 4.989317,4.792767 5.386617,5.206551 4.594851,4.785486 7.186947,11.483318 7.010309,18.114248 -0.03754,1.409207 -0.121003,2.162468 -0.367513,3.31685 -1.341535,6.282224 -5.934165,11.40411 -12.029413,13.415684 -2.504249,0.82646 -4.940972,1.080162 -8.588661,0.894217 z"
     id="path252" />
  <path
     style="fill:#ff0000;stroke-width:0.0703648"
     d="m 19.042279,22.367189 c -1.101099,-1.102259 -2.07014,-2.078314 -2.153426,-2.169012 -1.249469,-1.360674 -2.170433,-2.88872 -2.786357,-4.623062 -0.150899,-0.424907 -0.378865,-1.200232 -0.358799,-1.220297 0.01349,-0.01349 0.02704,0.01856 0.05676,0.134189 0.417981,1.626332 1.305811,3.456329 2.245487,4.628407 0.538346,0.671488 1.042759,1.206661 3.162486,3.355332 1.163948,1.179843 1.84947,1.884926 1.840931,1.893464 -0.0028,0.0028 -0.905982,-0.896763 -2.00708,-1.999021 z"
     id="path254" />
  <path
     style="fill:#ff0000;stroke-width:0.0703648"
     d="m 23.337082,29.348538 c 0,-0.144338 -0.04751,-0.653879 -0.08577,-0.919929 -0.164124,-1.141215 -0.579407,-2.12593 -1.310296,-3.106964 -0.227417,-0.305249 -0.970343,-1.081863 -3.07915,-3.218776 -2.161196,-2.189999 -2.74056,-2.833 -3.269184,-3.628273 -0.584798,-0.879779 -1.15423,-2.044555 -1.51479,-3.098506 -0.10397,-0.303911 -0.293733,-0.955511 -0.293946,-1.009341 -4.6e-5,-0.01136 1.594329,-0.01412 7.935347,-0.01375 l 7.935404,4.17e-4 0.449228,0.433766 c 2.745047,2.650576 2.979962,2.886091 3.650217,3.659531 0.504307,0.581944 1.073537,1.30927 1.494095,1.909056 l 0.09857,0.140578 v 4.439836 4.439837 H 29.341944 23.33708 Z"
     id="path256" />
</svg>
